<?xml version="1.0" encoding="utf-8"?>
<svg version="1.1" xmlns:xlink="http://www.w3.org/1999/xlink" width="87px" height="64px" xmlns="http://www.w3.org/2000/svg">
  <g transform="matrix(1 0 0 1 -223 -118 )">
    <path d="M 223 118  L 310 118  L 310 182  L 223 182  L 223 118  " fill-rule="nonzero" fill="#cccccc" stroke="none" />
    <path d="M 227 122  L 306 122  L 306 178  L 227 178  L 227 122  " fill-rule="nonzero" fill="#ffffff" stroke="none" />
    <path d="M 273.04 137.2  C 270.35200000000003 137.2  268.24 135.088  268.24 132.39999999999998  C 268.24 129.712  270.35200000000003 127.6  273.04 127.6  C 275.728 127.6  277.84000000000003 129.712  277.84000000000003 132.39999999999998  C 277.84000000000003 135.088  275.728 137.2  273.04 137.2  " fill-rule="nonzero" fill="#cccccc" stroke="none" />
    <path d="M 229 177  L 229 147.85  L 248 134.6  L 274.6 153.60689655172413  L 289.8 142.55  L 305 153.60689655172413  L 305 177  L 229 177  " fill-rule="nonzero" fill="#169bd5" stroke="none" />
  </g>
</svg>